<svg width="29.501" height="24.516" viewBox="0 0 29.501 24.516" xmlns="http://www.w3.org/2000/svg" xmlns:xlink="http://www.w3.org/1999/xlink" overflow="hidden"><path d="M25.8 2.252C23.048 2.408 17.577 2.977 14.2 5.044 13.9715 5.18574 13.8333 5.43614 13.835 5.705L13.835 23.981C13.8524 24.4225 14.2244 24.7663 14.6659 24.7489 14.7838 24.7442 14.8993 24.7135 15.004 24.659 18.479 22.91 23.504 22.433 25.988 22.302 26.8202 22.2713 27.4827 21.5946 27.496 20.762L27.496 3.794C27.4805 2.92429 26.7629 2.23179 25.8932 2.24726 25.8608 2.24784 25.8284 2.24942 25.796 2.252ZM13.3 5.044C9.92 2.977 4.449 2.409 1.7 2.252 0.832906 2.18283 0.0739121 2.82967 0.00473893 3.69676 0.00215772 3.72912 0.000577336 3.76155 4.75643e-08 3.794L0 20.763C0.0148343 21.5945 0.676969 22.2693 1.508 22.3 3.994 22.431 9.021 22.908 12.496 24.658 12.8815 24.8647 13.3616 24.7198 13.5683 24.3343 13.6265 24.2258 13.6586 24.1051 13.662 23.982L13.662 5.7C13.6658 5.43271 13.5282 5.18329 13.3 5.044Z" id="Icon_awesome-book-open" stroke="#75CFB8" stroke-width="2" fill="none" transform="translate(1 -1.249)"/></svg>