<svg xmlns="http://www.w3.org/2000/svg" width="20.259" height="15.194" viewBox="0 0 20.259 15.194">
  <g id="card-heading" transform="translate(0 -4.5)">
    <path id="Path_21" data-name="Path 21" d="M18.36,5.766H1.9a.633.633,0,0,0-.633.633V17.8a.633.633,0,0,0,.633.633H18.36a.633.633,0,0,0,.633-.633V6.4A.633.633,0,0,0,18.36,5.766ZM1.9,4.5A1.9,1.9,0,0,0,0,6.4V17.8a1.9,1.9,0,0,0,1.9,1.9H18.36a1.9,1.9,0,0,0,1.9-1.9V6.4a1.9,1.9,0,0,0-1.9-1.9Z" fill="#707070" fill-rule="evenodd"/>
    <path id="Path_22" data-name="Path 22" d="M6.75,18.633A.633.633,0,0,1,7.383,18h11.4a.633.633,0,0,1,0,1.266H7.383A.633.633,0,0,1,6.75,18.633Zm0,2.532a.633.633,0,0,1,.633-.633h7.6a.633.633,0,1,1,0,1.266h-7.6A.633.633,0,0,1,6.75,21.166Z" transform="translate(-2.951 -5.903)" fill="#707070" fill-rule="evenodd"/>
    <path id="Path_23" data-name="Path 23" d="M6.75,11.883a.633.633,0,0,1,.633-.633h11.4a.633.633,0,0,1,.633.633v1.266a.633.633,0,0,1-.633.633H7.383a.633.633,0,0,1-.633-.633Z" transform="translate(-2.951 -2.951)" fill="#707070"/>
  </g>
</svg>
