<svg id="copy" xmlns="http://www.w3.org/2000/svg" width="16.421" height="16.421" viewBox="0 0 16.421 16.421">
  <path id="Path_19" data-name="Path 19" d="M20.729,10.173V20.729H10.173V10.173H20.729m0-1.173H10.173A1.173,1.173,0,0,0,9,10.173V20.729A1.173,1.173,0,0,0,10.173,21.9H20.729A1.173,1.173,0,0,0,21.9,20.729V10.173A1.173,1.173,0,0,0,20.729,9Z" transform="translate(-5.481 -5.481)" fill="#707070"/>
  <path id="Path_20" data-name="Path 20" d="M3.423,11.633H2.25V3.423A1.173,1.173,0,0,1,3.423,2.25h8.21V3.423H3.423Z" transform="translate(-2.25 -2.25)" fill="#707070"/>
</svg>
