<svg xmlns="http://www.w3.org/2000/svg" width="22.192" height="19.775" viewBox="0 0 22.192 19.775">
  <path id="heart" d="M21.246,4.647a5.9,5.9,0,0,0-8.34,0l-.715.723-.709-.722,0,0a5.9,5.9,0,0,0-8.337,0l-.318.318a5.9,5.9,0,0,0,0,8.337l8.4,8.4.948.994.023-.023.024.024.889-.937L21.565,13.3a5.9,5.9,0,0,0,0-8.337Zm-.724,7.612-8.328,8.328L3.866,12.259a4.421,4.421,0,0,1,0-6.253l.318-.318a4.421,4.421,0,0,1,6.25,0l1.754,1.786,1.763-1.784a4.421,4.421,0,0,1,6.253,0l.318.318a4.426,4.426,0,0,1,0,6.253Z" transform="translate(-1.097 -2.92)" fill="#707070"/>
</svg>
