<svg width="50" height="50" viewBox="0 0 50 50" xmlns="http://www.w3.org/2000/svg" xmlns:xlink="http://www.w3.org/1999/xlink" overflow="hidden"><g id="Group_4" transform="translate(-8 -29)"><path d="M25 0C38.8071-7.10543e-15 50 11.1929 50 25 50 38.8071 38.8071 50 25 50 11.1929 50-1.42109e-14 38.8071-2.84217e-14 25-3.55271e-14 11.1929 11.1929-7.10543e-15 25-7.10543e-15Z" id="Path_1" fill="#75CFB8" transform="translate(8 29)"/><path d="M0.343 19.828 11.843 24.009C11.9586 24.0509 12.0854 24.0509 12.201 24.009L23.701 19.828C23.9074 19.7528 24.0448 19.5567 24.045 19.337L24.045 4.7C24.0471 4.41116 23.8146 4.17535 23.5257 4.1733 23.4684 4.17289 23.4114 4.18191 23.357 4.2L20.9 5.023 20.9 0.522C20.8983 0.23316 20.6627 0.000412913 20.3739 0.00214422 20.3146 0.0024996 20.2558 0.0129336 20.2 0.033L12.02 3.1 3.841 0.033C3.56983-0.0680686 3.26806 0.0698298 3.16699 0.341005 3.14529 0.399234 3.13412 0.460858 3.134 0.523L3.134 5.023 0.687 4.207C0.412726 4.11642 0.116952 4.26533 0.02637 4.5396 0.00927448 4.59137 0.000377035 4.64549-2.33451e-08 4.7L0 19.337C0.000174032 19.5567 0.137598 19.7528 0.344 19.828ZM12.543 16.555 17.443 14.596C17.7139 14.4958 17.8523 14.1949 17.7521 13.924 17.6519 13.6531 17.351 13.5148 17.0801 13.615 17.0717 13.6181 17.0633 13.6214 17.055 13.625L12.545 15.425 12.545 12.374 17.445 10.415C17.7159 10.3148 17.8543 10.0139 17.7541 9.74304 17.6539 9.47213 17.353 9.33376 17.0821 9.43397 17.0737 9.43709 17.0653 9.44044 17.057 9.444L12.547 11.244 12.547 8.193 17.447 6.234C17.7179 6.13379 17.8563 5.83294 17.7561 5.56204 17.6559 5.29113 17.355 5.15276 17.0841 5.25297 17.0757 5.25609 17.0673 5.25944 17.059 5.263L12.549 7.063 12.549 4.021 19.866 1.277 19.866 16.885 12.549 19.629ZM4.18 1.276 11.5 4.02 11.5 7.067 6.99 5.267C6.72744 5.1466 6.417 5.26185 6.2966 5.5244 6.1762 5.78696 6.29145 6.09741 6.55401 6.2178 6.56968 6.22499 6.58569 6.2314 6.602 6.237L11.502 8.197 11.502 11.252 6.992 9.452C6.72664 9.33792 6.41904 9.46057 6.30496 9.72593 6.19089 9.99129 6.31353 10.2989 6.57889 10.413 6.58717 10.4165 6.59555 10.4199 6.604 10.423L11.504 12.382 11.504 15.437 6.994 13.637C6.73929 13.5008 6.42238 13.5968 6.28616 13.8515 6.14994 14.1062 6.24599 14.4232 6.5007 14.5594 6.53232 14.5763 6.5656 14.5899 6.6 14.6L11.5 16.559 11.5 19.632 4.18 16.885ZM1.044 5.428 3.135 6.128 3.135 17.247C3.13511 17.4649 3.2701 17.6601 3.474 17.737L11.836 20.873C11.9547 20.917 12.0853 20.917 12.204 20.873L20.566 17.737C20.7699 17.6601 20.9049 17.4649 20.905 17.247L20.905 6.126 23 5.428 23 18.971 12.02 22.962 1.044 18.971Z" id="book" stroke="#F7F7F7" stroke-width="0.3" fill="#F7F7F7" transform="translate(20.501 41.48)"/></g></svg>