<svg width="31.428" height="27.667" viewBox="0 0 31.428 27.667" xmlns="http://www.w3.org/2000/svg" xmlns:xlink="http://www.w3.org/1999/xlink" overflow="hidden"><path d="M29.482 6.766C26.4589 3.74141 21.5563 3.74018 18.5317 6.76326 18.5308 6.76417 18.5299 6.76508 18.529 6.766L17.037 8.259 15.544 6.766C12.5313 3.72956 7.62744 3.71035 4.591 6.72309 1.55456 9.73583 1.53535 14.6397 4.54809 17.6761 4.56234 17.6905 4.57664 17.7048 4.591 17.719L6.083 19.211 17.037 30.164 27.989 19.211 29.481 17.719C32.5056 14.6959 32.5068 9.79333 29.4837 6.76874 29.4828 6.76783 29.4819 6.76691 29.481 6.766Z" id="Icon_feather-heart" stroke="#75CFB8" stroke-width="2" stroke-linejoin="round" fill="none" transform="translate(-1.323 -3.497)"/></svg>