<svg id="search" xmlns="http://www.w3.org/2000/svg" width="15.283" height="15.282" viewBox="0 0 15.283 15.282">
  <path id="Path_2" data-name="Path 2" d="M23.117,23.115a.955.955,0,0,1,1.352,0l3.677,3.677a.955.955,0,1,1-1.35,1.352l-3.677-3.677a.955.955,0,0,1,0-1.352Z" transform="translate(-13.143 -13.141)" fill="#707070" fill-rule="evenodd"/>
  <path id="Path_3" data-name="Path 3" d="M6.208,11.462A5.253,5.253,0,1,0,.955,6.208,5.253,5.253,0,0,0,6.208,11.462Zm6.208-5.253A6.208,6.208,0,1,1,6.208,0a6.208,6.208,0,0,1,6.208,6.208Z" transform="translate(0 0)" fill="#707070" fill-rule="evenodd"/>
</svg>
