<svg xmlns="http://www.w3.org/2000/svg" width="21.238" height="21.813" viewBox="0 0 21.238 21.813">
  <g id="settings" transform="translate(-1.885 -1.594)">
    <path id="Path_10" data-name="Path 10" d="M21.094,13.094V11.9l1.5-1.313a1.563,1.563,0,0,0,.3-1.991L21.047,5.469a1.578,1.578,0,0,0-1.852-.7l-1.9.641a8.867,8.867,0,0,0-1.023-.586l-.4-1.969a1.563,1.563,0,0,0-1.563-1.258H10.657A1.563,1.563,0,0,0,9.094,2.852L8.7,4.821a8.969,8.969,0,0,0-1.031.586L5.806,4.735a1.563,1.563,0,0,0-.5-.047,1.563,1.563,0,0,0-1.352.781L2.109,8.594a1.563,1.563,0,0,0,.32,1.961l1.477,1.351V13.1L2.429,14.414a1.563,1.563,0,0,0-.32,1.992l1.844,3.125a1.578,1.578,0,0,0,1.852.7l1.9-.641a8.867,8.867,0,0,0,1.023.586l.4,1.969a1.563,1.563,0,0,0,1.563,1.258h3.688a1.563,1.563,0,0,0,1.563-1.258l.4-1.969a8.969,8.969,0,0,0,1.031-.586l1.891.641a1.578,1.578,0,0,0,1.852-.7l1.781-3.125a1.563,1.563,0,0,0-.32-1.961Zm-1.4,5.656-2.68-.906A6.922,6.922,0,0,1,14.9,19.071l-.554,2.8H10.656L10.1,19.1a7.313,7.313,0,0,1-2.109-1.227L5.3,18.75,3.461,15.625,5.586,13.75a6.953,6.953,0,0,1,0-2.445L3.461,9.375,5.3,6.25l2.68.906A6.922,6.922,0,0,1,10.1,5.929l.554-2.8h3.688L14.9,5.9a7.313,7.313,0,0,1,2.109,1.227l2.687-.875,1.844,3.125L19.414,11.25a6.953,6.953,0,0,1,0,2.445l2.125,1.93Z" fill="#9f94ed"/>
    <path id="Path_11" data-name="Path 11" d="M12.5,17.188A4.688,4.688,0,1,1,17.188,12.5,4.641,4.641,0,0,1,12.5,17.188Zm0-7.813A3.055,3.055,0,0,0,9.375,12.5,3.055,3.055,0,0,0,12.5,15.625,3.055,3.055,0,0,0,15.625,12.5,3.055,3.055,0,0,0,12.5,9.375Z" fill="#9f94ed"/>
  </g>
</svg>
