<svg width="27.5" height="27.5" viewBox="0 0 27.5 27.5" xmlns="http://www.w3.org/2000/svg" xmlns:xlink="http://www.w3.org/1999/xlink" overflow="hidden"><g id="Icon_ionic-md-time" transform="translate(-3.375 -3.375)"><path d="M17.112 3.375C9.51809 3.38218 3.36783 9.54408 3.37501 17.138 3.38219 24.7319 9.54409 30.8822 17.138 30.875 24.7268 30.8678 30.875 24.7138 30.875 17.125 30.8778 9.53385 24.7262 3.37776 17.135 3.37499 17.1273 3.37499 17.1197 3.37499 17.112 3.375ZM17.125 28.125C11.0499 28.125 6.125 23.2001 6.125 17.125 6.125 11.0499 11.0499 6.125 17.125 6.125 23.2001 6.125 28.125 11.0499 28.125 17.125 28.125 23.2001 23.2001 28.125 17.125 28.125Z" id="Path_2" fill="#75CFB8"/><path d="M18.731 10.688 16.538 10.688 16.538 19.463 24.216 24.068 25.316 22.268 18.735 18.368Z" id="Path_3" fill="#75CFB8" transform="translate(-1.125 -0.806)"/></g></svg>